<svg xmlns="http://www.w3.org/2000/svg" viewBox="0 0 4800 360">
	<title>Iowa State University</title>
	<defs>
		<style>
			.isu {fill:#fff;}
		</style>
	</defs>
	<path class="isu" d="M3975.3 353.6v-6c-26.7-4.2-26.2-7-56-54-11.7-18.8-43.2-68.2-64-83.8 18.4-8.8 66.4-15 66-68 .4-56.5-55.6-75.3-104-76-20.4.2-48.6 3.5-62.2 4-11.3-.5-36.2-1.4-36-2v8c18.6 1.5 27 8 26 40v186c1 36.5-6.5 43-26 45.8v6c-.3.2 30.8-.8 46 0 26.7-.3 49-.3 48.2 0v-6c-20.5-4.6-24.7-5.6-26-46-.6 2-.6-85 0-85.8 31-2 51.7 22 74 56 15.3 23.7 35 60 54 81.8 7-.3 24-.8 32 0 10-.8 27.3.2 28 0zm-188-149.8v-116c29.4-12.8 90.2-9.5 92 54 1 65.3-66.4 67.6-92 62zm-3511 153.8c80-.5 149.3-64 150-147.8-.2-84.5-70-148.5-150-148-83-.5-151.7 63.5-152.2 148 .6 83.8 69.4 147.3 152.2 147.8zm0-281.7c53.2-.5 103.2 40.4 104 133.8-.8 92.7-50.8 133.2-104 133.8-55.6-.6-105.5-41-106.2-133.8.8-93.4 50.7-134.3 106.2-134zm608.4 24l-94 219.7c-8.5 20.4-11 20.4-26 26-1 9.5-.4 7.6 0 8-.4-.4 20.3-1.8 38-2 18.5.2 38.3 1.6 38 2 .3-.4.3.5 0-8-14.7-2.3-33-3.2-24-26l34-84h94l30 84c9.5 22.8-2.3 23.3-20 26-.2 8.6-.2 7.6 0 8-.2-.4 27.6-1.8 50-2 22.8.2 49.7 1.6 50.2 2-.6-.4-.6.5 0-8-14.3-2.3-26-5.6-34.2-26L922.8 66c-.3-1-16.3-.4-34 0-18.6-.4-37-1-36 0-1-1-1-2.3 0 6 20.7 5.3 40 6.7 32 28zm16 8l36 105.8h-78zm778.7 239.6c-15-2.8-33.5-3.7-24-26l32-85.8h96l30 86c9.2 22-2.6 22.6-20 25.8-.5 8-.5 7 0 8-.5-1 27.3-2.3 50-2 22.5-.3 49.3 1 50.2 2-1-1-1 0 0-8-14.5-2.8-26.3-6-36-26l-96-255.7c-.7.5-16.8 1-34.2 2-18.8-1-37.2-1.5-38-2 .8.5.8-1 0 8 22.5 4.7 41.8 6.2 34 26l-94 221.7c-9 20-11.2 20-28 26 .7 9 1.2 7 2 8-.8-1 20-2.4 38-2 18.2-.4 38 1 38 2v-8zm58-237.7l38 105.8h-80zM3359 359.5l100-243.7c14.6-36.3 20.7-42.4 48-42v-6c0-1-20.3-.5-38 0-12.4 0-47.7-1-48 0v6c23 5.7 21.5 12.7 18 26l-72 195.7-76-181.8c-13.8-31-6.3-37 16-40v-8c.8.5-41.6 2-52 2-9 0-42.4-1-45.8-.2 0 1 0 2.8-.3 6 25 3 24.5 12 40 42 7 15.6 100.8 243.6 100 243.8h10zM0 8a.6.6 0 0 1 .2 0c0-.4 0-.3-.2 0zm58 343.6c24.3-.6 55.8 1.7 56 2-.2-.3-.2-.3 0-10-33.2-5-33.2-5-34-103.8v-120C81 21.5 81 21.5 114 16V8c-2.2-.6-32.5.7-56 0C33.2 8.7 2.5 7.4.2 8L0 16c33.8 5.4 33.3 5.4 34 104v119.8c-.7 99-.7 99-34 103.8.3 9.7.3 9.7 0 10 .3-.3 32.3-2.6 58-2zM114 8c0-.3 0-.4 0 0zM1391 251.6C1390.7 137 1213.6 168.5 1215 82c-.5-62.5 74.4-78.5 130-48 13.2 7 19.3 42 20 42h10l-2-62c-.7.8-45-13.3-80-14-68 .7-120 48.7-120 100 0 112.3 175.7 80.8 176 167.7-.3 71.5-94.4 98.3-154 50-13.5-9.5-15.3-29.7-18-42-11-.4-11-.4-10 0l2 64c.8 0 47.4 19.7 96 20 83.7-.8 125.7-57.2 126.2-108zm178 102v-8c-31-3.2-32-8-32-42V82c.2.5 3 .5 32 0 45.7.5 55.5 5.7 62.2 38h8l-2-54c0 .5-99.3 2-120 2-22.6 0-120-1.5-120.2-2l-4 54h6c9-32.3 18.3-37.5 64-38h32v221.7c.5 33.6-.4 38.8-32 42v8c0-.4 31.6-1.8 54-2 21 .2 52 1.6 52 2zm-32-271.7zM2320 299.7l-8-2c-12 38.2-45.3 41-124.2 36v-122c82.7-.8 93.5-2.7 94 26h8c-.5-26.4.4-43.3 2-72h-8c-1.6 32-13 30-96 30-.7 0-.7-113.7 0-113.8 89.7-7 99.6 4.7 110 32l6-2c-.4-8.8-4.6-37.5-6-46-6.6-1-59 0-88 0-28.4 0-87.7-1-88 0v6c18.7 3.5 27 4.4 28 44v187.7c-1.3 37.4-4.6 38-28 42v6c.3.7 39.4-.7 68 0 17-.7 116.5.7 116 0 .5.7 10.8-38 14-52zM2734.2 72c-1.3-49.7 12-52.5 34-58-.5 1.3-.5-8 0-8-.5 0-21.7 1.3-48 2-32.5-.7-53.3-2-54-2v8c38 7.4 42.6 7 44 60-.4-.4-.4 151 0 149.8-1.4 57-13.6 69-14 68 .4 1-21.3 41.3-74 42-59.4-.7-80.6-41.6-80.2-42-.3.4-14.4-12.8-14-72v-146c-.4-57.6 18.5-54.3 34-59.8V6s-33.4 1.3-58 2c-23.5-.7-57.4-2-58-2v8c25 4.6 32.2 7 32 60v145.8c.2 70.5 19 89.8 18 90 1-.2 32.6 48.2 106.2 47.8 69.6.4 102-38 102-38s29.7-25.5 30-83.8v-164zm348.3-6c.8.5-20.4 2-40 2-18.5 0-42-1.5-42-2v8c27.7 3 34.3 8 34 42v173.7L2838.3 66c0 .5-8 1.5-28 2-18-.5-35-1.5-34-2v8c19.2 4.7 40.4 10 40 42v185.7c.4 27.6-4.3 39-32 44v6c0 .7 23-.7 40 0 20.7-.7 43.7.7 44 0v-6c-29-5-32.8-16.4-32-44V124l204 231.6 14.2 2V114c0-31.5 6.2-33 28-40v-8zM4766 68c-18.6 0-38-1-38 0v6c28.3 3.8 24.6 12.3 18 26l-58 99.8-60-100c-13-19.2-2.6-20 16-26v-6c-.7-.8-28.5 0-48.2 0-19.8 0-45.8-.8-46 0v6c16.7 4.5 15.3 5 32 28l74 112v90c-1.7 38.2-5 36.3-32 42v5.8c.7.8 31.3-.6 52 0 22.6-.6 52.3.8 52 0v-6c-22.8-5.5-32.7-4-32-42l-2-89.8 74.2-114c12.4-17.3 12.8-22 32-26v-6c-.8-.8-17.8 0-34 0zM826.5 66h.2c0-.5-.2-.8-.2 0zm-282 0a.5.5 0 0 1 .2-.2c0-.7 0-.3-.2 0zm-42.8-.2a2 2 0 0 1 .7 0c-.4-.3-.7-.5-.7 0zm185 291.8h10l100-257.7c5.7-17 9.5-25 30-28 0-3.8-.2-5.4-.2-6-1.3-1-24.5-.4-41.8 0-18.6-.4-40.2-1-40 0-.2-1-.2-1.8 0 6 28.5 3 33.2 7.2 28 28l-70 195.7L620.4 100c-5.6-17 3-25 24-28v-6c0-1-27.2-.4-50 0-22-.4-47.5-1-49.8-.2l-.2 6c23.4 6 24.8 7.4 34 28l30 72-52 124-78-196c-6.7-16.8 0-24.8 24-28a55.4 55.4 0 0 1-.8-6c-4.5-.6-29.8-.2-51.3 0-22.4-.2-48.8-.7-48 0-.8-.7-.3-1.6 0 6 23.7 7.4 26 10.2 34 28l104 257.8h8l70-163.8zm1175-237.7c9-32.3 18.3-37.5 64-38h32v221.7c.5 33.6-.4 38.8-32 42v8c0-.4 31.6-1.8 54-2 21 .2 52 1.6 52 2v-8c-31-3.2-32-8-32-42V82c0 .5 1 .5 32 0 45.7.5 55.5 5.7 64 38h6l-2-54c.3.5-99 2-120 2-22.4 0-120-1.5-120.2-2l-4 54h6zm2329.8 225.7c-.4 7-.4 7 0 8-.4-1 26.5-2.7 46-2 21.5-.7 47.8 1 48 2-.2-1-.2-1 0-8-27.5-5-27.5-5-28-86v-100c.5-81.4.5-81.4 28-85.8-.2-7.5-.2-7.5 0-8-.2.5-26.5 1.5-48 2-19.5-.5-46.4-1.5-46-2-.4.5-.4.5 0 8 27.4 4.3 26.5 4.3 26 85.8v100c.5 80.8 1 80.8-26 86zM3209 67.7c0-1.2 0-1.4-.3-1.8.4.5-26 1.5-46 2-21-.5-47.7-1.5-48-2 .3.5.3.5 0 8 28 4.3 27 4.3 28 85.8v100c-1 80.8-.4 80.8-28 86 .3 7 .3 7 0 8 .3-1 27-2.8 48-2 20-.8 46.4 1 46 2 .4-1 .4-1 0-8-27-5.2-27-5.2-26-86v-100c-1-81.5-1-81.5 26-86v-6a.5.5 0 0 1 .3 0zm-.3.2v6l.3-6.2a.5.5 0 0 0-.3 0zm324.3 48v189.7c-.3 36.8-3.6 37.3-26 40v8c-.7 0 38.4-1.3 66-2 18 .7 117.5 2 118 2-.5 0 9.8-38.5 14-52l-8-4c-12.6 39.6-46 42.4-126 38v-124c83.7.6 94.5-1.3 96 28h8c-1.5-27-.5-44 2-72h-8c-2.5 31.4-13.8 29.5-98 28 .3 1.5.3-112.3 0-111.8 90.8-7.6 100.7 4 110 32l8-2c-1.3-9.4-5.6-38-6-48-7.6.5-60 1.5-90 2-27.3-.5-86.7-1.5-86-2v8c21 1 26.2 3.8 26 42zm888.7-48c-22 0-119.4-1.5-120-2l-4 54h8c7.4-32.3 17-37.5 62-38h34v221.7c-1 33.6-2 38.8-34 42 .6 8 .6 7.6 0 8 .6-.4 32-1.8 54-2 21.4.2 52.5 1.6 52 2 .5-.4.5 0 0-8-30.6-3.2-31.5-8-32-42V82c.5.5 1.4.5 32 0 46.2.5 56 5.7 64 38h8l-4-54c.8.5-98.6 2-120 2zm-366.3 289.6c69-1 103.7-47.5 104-90-.3-94-146.3-68-146-139.7.7-50.7 62.4-63.8 108-38 11 4.7 15.6 33.4 16 34h8l-2-50c.2-1-36-12.2-66-12-55-.2-97.7 39.3-98 80 .3 93.8 145 68 144 139.7 1 58.5-76.4 80.5-126 42-10.7-9-12-26-14-36-9.4-.2-9.4-.2-10 0l4 52c0 1 38 17.4 78 18z"/>
</svg>