<?xml version="1.0" encoding="utf-8"?>
<!-- Generator: Adobe Illustrator 19.2.1, SVG Export Plug-In . SVG Version: 6.00 Build 0)  -->
<svg version="1.1" id="Layer_1" xmlns="http://www.w3.org/2000/svg" xmlns:xlink="http://www.w3.org/1999/xlink" x="0px" y="0px"
	 viewBox="0 0 152.7 81.7" style="enable-background:new 0 0 152.7 81.7;" xml:space="preserve">
<style type="text/css">
	.Arched_x0020_Green{fill:url(#SVGID_1_);stroke:#FFFFFF;stroke-width:0.25;stroke-miterlimit:1;}
	.st0{fill:#FFFFFF;}
</style>
<linearGradient id="SVGID_1_" gradientUnits="userSpaceOnUse" x1="-293.5806" y1="348.165" x2="-292.8735" y2="347.4579">
	<stop  offset="0" style="stop-color:#1EAB4B"/>
	<stop  offset="0.9831" style="stop-color:#19361A"/>
</linearGradient>
<g>
	<g>
		<path class="st0" d="M13,18v6.8c0,5.6,0,5.6-1.9,5.9c0,0.5,0,0.5,0,0.5c0,0,1.8-0.2,3.3-0.2c1.4,0,3.2,0.2,3.2,0.2c0,0,0,0,0-0.5
			c-1.9-0.3-1.9-0.3-1.9-5.9V18c0-5.6,0-5.6,1.9-5.9c0-0.5,0-0.5,0-0.5c0,0-1.8,0.1-3.2,0.1c-1.4,0-3.2-0.1-3.3-0.1c0,0,0,0,0,0.5
			C13,12.4,13,12.4,13,18L13,18L13,18z"/>
		<path class="st0" d="M88.6,12.1c0,0-2.5-0.8-4.5-0.8c-3.8,0-6.7,2.7-6.7,5.6c0,6.4,9.9,4.6,9.9,9.6c0,4-5.3,5.5-8.7,2.7
			c-0.7-0.5-0.8-1.7-1-2.4c-0.6,0-0.6,0-0.6,0l0.2,3.6c0,0,2.6,1.1,5.4,1.1c4.7,0,7.1-3.2,7.1-6.1c0-6.4-10-4.7-10-9.6
			c0-3.5,4.3-4.4,7.4-2.7c0.7,0.4,1.1,2.3,1.1,2.4h0.6L88.6,12.1L88.6,12.1L88.6,12.1z"/>
		<path class="st0" d="M89.7,18l0.3-3.1c0,0,5.5,0.1,6.8,0.1c1.2,0,6.8-0.1,6.8-0.1l0.1,3.1c0,0,0.1,0-0.4,0c-0.4-1.8-1-2.1-3.6-2.1
			c-1.7,0-1.8,0-1.8,0v12.4c0,2,0.1,2.2,1.8,2.4c0,0.5,0,0.5,0,0.5c0,0-1.7-0.1-2.9-0.1c-1.2,0-3,0.1-3,0.1c0,0,0,0,0-0.5
			c1.8-0.1,1.8-0.4,1.8-2.4V15.9h-1.8c-2.6,0-3.1,0.3-3.6,2.1C89.6,18,89.7,18,89.7,18L89.7,18L89.7,18z"/>
		<path class="st0" d="M130.9,14.9c0,0,3.3,0.1,4.9,0.1c1.7,0,4.6-0.1,5-0.1c0,0.5,0.3,2.2,0.3,2.6l-0.4,0.1
			c-0.6-1.5-1.1-2.2-6.3-1.8c0,0,0,6.4,0,6.4c4.7,0,5.4,0.1,5.5-1.7h0.4c-0.1,1.6-0.2,2.5-0.1,4.1H140c-0.1-1.7-0.7-1.6-5.4-1.6v7
			c4.5,0.3,6.4,0.1,7.1-2l0.4,0.1c-0.2,0.8-0.8,3-0.8,3c0,0-5.6-0.1-6.6-0.1c-1.6,0-3.8,0.1-3.8,0.1v-0.4c1.3-0.2,1.5-0.2,1.5-2.3
			V17.7c0-2.2-0.5-2.2-1.5-2.4V14.9L130.9,14.9L130.9,14.9z"/>
		<path class="st0" d="M41.9,14.9c0,0,1.5,0,2.8,0.1c1.3,0,2.8-0.1,2.8-0.1c0,0,0,0,0,0.4c-1.2,0.1-1.6,0.6-1.3,1.5l4.6,11.1l4-11.1
			c0.3-1.2,0-1.4-1.6-1.5c0-0.5,0-0.4,0-0.4c0,0,1.2,0,2.2,0.1c1,0,2.4-0.1,2.4-0.1c0,0,0,0,0,0.4c-1.1,0.1-1.3,0.6-1.7,1.5
			l-5.6,14.6h-0.6L46,22.1l-3.9,9.2h-0.1h-0.4l-5.9-14.6c-0.4-0.9-0.6-1.1-1.9-1.5c0-0.5,0-0.4-0.1-0.4c0,0,1.5,0,2.8,0.1
			c1.3,0,2.9-0.1,2.9-0.1c0,0,0,0,0,0.4c-1.3,0.1-1.7,0.6-1.3,1.5l4.4,11.1l2.9-7l-1.6-4.1c-0.6-1.2-0.7-1.3-2-1.5
			C41.9,14.8,41.9,14.9,41.9,14.9L41.9,14.9L41.9,14.9z"/>
		<path class="st0" d="M115.8,18l0.3-3.1c0,0,5.5,0.1,6.8,0.1c1.2,0,6.8-0.1,6.8-0.1l0.1,3.1c0,0,0.1,0-0.4,0
			c-0.4-1.8-1-2.1-3.5-2.1c-1.8,0-1.8,0-1.8,0v12.4c0,2,0.1,2.2,1.8,2.4c0,0.5,0,0.5,0,0.5c0,0-1.8-0.1-3-0.1c-1.2,0-3,0.1-3,0.1
			c0,0,0,0,0-0.5c1.8-0.1,1.8-0.4,1.9-2.4V15.9h-1.9c-2.6,0-3.1,0.3-3.6,2.1C115.7,18,115.8,18,115.8,18L115.8,18L115.8,18z"/>
		<path class="st0" d="M18.1,23c0-4.8,3.9-8.4,8.5-8.4c4.6,0,8.5,3.6,8.5,8.4c0,4.8-3.9,8.3-8.5,8.4C22.1,31.4,18.2,27.8,18.1,23
			L18.1,23L18.1,23z M32.6,23c0-5.3-2.8-7.6-5.9-7.6c-3.1,0-5.9,2.3-5.9,7.6c0,5.3,2.8,7.6,5.9,7.5C29.7,30.6,32.6,28.3,32.6,23
			L32.6,23L32.6,23z"/>
		<path class="st0" d="M59.2,14.9c0,0,1,0,2,0.1c1,0,1.9-0.1,1.9-0.1l5.5,14.4c0.5,1.1,1.1,1.3,1.9,1.5c0,0.5,0,0.4,0,0.4
			c0,0-1.5-0.1-2.8-0.1c-1.3,0-2.8,0.1-2.8,0.1c0,0,0,0,0-0.4c1-0.2,1.7-0.2,1.1-1.5l-1.7-4.8h-5.4l-1.9,4.8
			c-0.5,1.3,0.5,1.3,1.3,1.5c0,0.5,0,0.4,0,0.4c0,0-1.1-0.1-2.2-0.1c-1,0-2.1,0.1-2.2,0.1c0,0,0,0.1,0-0.4c0.9-0.3,1-0.3,1.5-1.5
			l5.3-12.4c0.4-1.2-0.6-1.3-1.8-1.6C59.2,14.8,59.2,14.9,59.2,14.9L59.2,14.9L59.2,14.9z M64.1,23.3l-2.2-6l-2.4,6H64.1L64.1,23.3
			L64.1,23.3z"/>
		<path class="st0" d="M106.5,14.9c0,0,1.1,0.1,2.1,0.1c1,0,1.9,0,1.9-0.1l5.5,14.4c0.5,1.2,1.2,1.3,2,1.5c0,0.5,0,0.4,0,0.4
			c0,0-1.5-0.1-2.8-0.1c-1.3,0-2.9,0.1-2.9,0.1c0,0,0,0,0-0.4c1-0.2,1.7-0.2,1.2-1.5l-1.7-4.8h-5.4l-1.9,4.8
			c-0.5,1.3,0.5,1.3,1.4,1.5c0,0.5,0,0.4,0,0.4c0,0-1.1-0.1-2.2-0.1c-1,0-2.2,0.1-2.2,0.1c0,0,0,0.1,0-0.4c0.9-0.4,1-0.4,1.5-1.5
			l5.3-12.4c0.4-1.2-0.7-1.3-1.9-1.5C106.5,14.9,106.5,15,106.5,14.9L106.5,14.9L106.5,14.9z M111.3,23.4l-2.1-6l-2.4,6H111.3
			L111.3,23.4L111.3,23.4z"/>
		<path class="st0" d="M52.1,37.2c0,0,2.1,0,2.6,0c0.6,0,3-0.1,2.9-0.1v0.4c-1.3,0.2-1.7,0.6-1,2.4l4.3,10.3L65.1,39
			c0.2-0.7,0.2-1.1-1-1.5v-0.3c0,0,2,0,2.7,0c0.9,0,2.1,0,2.1,0v0.3c-1.6,0-1.9,0.4-2.7,2.4l-5.7,13.8H60c0,0-5.3-12.9-5.7-13.8
			c-0.8-1.7-0.8-2.2-2.2-2.4V37.2L52.1,37.2L52.1,37.2z"/>
		<path class="st0" d="M27.6,37.1c0,0,1,0.1,2,0.1c1.1,0,1.6-0.1,1.5-0.1l11.1,12.6v-9.8c0-1.9-0.4-2.2-1.9-2.4v-0.4
			c0,0,1.3,0.1,2.4,0.1c1.1,0,2.3-0.1,2.3-0.1v0.4c-1.3,0.4-1.6,0.5-1.6,2.4v13.7l-0.8-0.1L31,40.4v10c0,1.5,0.2,2.2,1.9,2.4v0.4
			c0,0-1.3-0.1-2.4-0.1c-1,0-2.3,0.1-2.4,0.1v-0.4c1.6-0.3,1.9-0.9,1.9-2.4V39.9c0-1.8-1.2-2-2.4-2.4V37.1L27.6,37.1L27.6,37.1z"/>
		<path class="st0" d="M127.7,37.2c0,0,1.5,0,2.6,0c1.1,0,2.7,0,2.7,0v0.4c-1,0.3-1.6,0.4-0.9,1.5l3.4,5.6l3.2-5.5
			c0.4-0.9,0.6-1.3-1-1.6v-0.3c0,0,1.1,0,2.1,0c1,0,1.9,0,1.9,0v0.3c-1,0.3-1.1,0.5-1.8,1.5l-4.1,6.4l0.1,5c0,2.2,0.5,2.1,1.9,2.4
			v0.4c0,0-1.7-0.1-2.9-0.1c-1.2,0-3,0.1-3,0.1v-0.4c1.5-0.3,1.7-0.2,1.7-2.4l0.1-5l-4.1-6.4c-1-1.3-0.9-1.3-1.8-1.5V37.2
			L127.7,37.2L127.7,37.2z"/>
		<path class="st0" d="M109,42.4V48c0,4.6,0,4.6-1.5,4.8c0,0.4,0,0.4,0,0.4c0,0,1.5-0.1,2.7-0.1c1.1,0,2.6,0.1,2.6,0.1
			c0,0,0,0,0-0.4c-1.5-0.3-1.5-0.3-1.5-4.8v-5.6c0-4.6,0-4.6,1.5-4.8c0-0.4,0-0.4,0-0.4c0,0-1.5,0.1-2.6,0.1c-1.2,0-2.7-0.1-2.7-0.1
			c0,0,0,0,0,0.4C109.1,37.8,109,37.8,109,42.4L109,42.4L109,42.4z"/>
		<path class="st0" d="M48.3,42.4V48c0,4.6,0,4.6-1.5,4.8c0,0.4,0,0.4,0,0.4c0,0,1.5-0.1,2.7-0.1c1.1,0,2.6,0.1,2.6,0.1
			c0,0,0,0,0-0.4c-1.5-0.3-1.5-0.3-1.5-4.8v-5.6c0-4.6,0-4.6,1.5-4.8c0-0.4,0-0.4,0-0.4c0,0-1.5,0.1-2.6,0.1c-1.2,0-2.7-0.1-2.7-0.1
			c0,0,0,0,0,0.4C48.3,37.8,48.3,37.8,48.3,42.4L48.3,42.4L48.3,42.4z"/>
		<path class="st0" d="M68.9,37.1c0,0,3.4,0.1,5,0.1c1.6,0,4.6-0.1,5-0.1c0.1,0.5,0.3,2.2,0.3,2.6l-0.3,0.1
			c-0.6-1.5-1.2-2.2-6.3-1.8c0,0,0,6.4,0,6.4c4.7,0,5.3,0.1,5.5-1.7h0.4c-0.1,1.6-0.2,2.5-0.1,4.1h-0.4c-0.1-1.7-0.7-1.6-5.4-1.6v7
			c4.5,0.3,6.4,0.1,7-2l0.5,0.1c-0.2,0.8-0.8,3-0.8,3c0,0-5.6-0.1-6.6-0.1c-1.6,0-3.8,0.1-3.8,0.1V53c1.3-0.2,1.5-0.2,1.5-2.3V39.9
			c0-2.2-0.3-2.3-1.5-2.4V37.1L68.9,37.1L68.9,37.1z"/>
		<path class="st0" d="M113.5,40.2l0.3-3.1c0,0,5.5,0.1,6.8,0.1c1.2,0,6.8-0.1,6.8-0.1l0.1,3.1c0,0,0.1,0-0.4,0
			c-0.4-1.9-1-2.2-3.6-2.2c-1.7,0-1.8,0-1.8,0v12.5c0,1.9,0.1,2.2,1.8,2.4c0,0.5,0,0.5,0,0.4c0,0-1.7-0.1-2.9-0.1
			c-1.2,0-3,0.1-3,0.1c0,0,0,0,0-0.4c1.8-0.1,1.8-0.4,1.8-2.4V38h-1.8c-2.6,0-3.1,0.3-3.6,2.2C113.4,40.2,113.5,40.2,113.5,40.2
			L113.5,40.2L113.5,40.2z"/>
		<path class="st0" d="M104.8,37.5c0,0-2.1-0.6-3.7-0.6c-3.1,0-5.6,2.2-5.6,4.6c0,5.2,8.2,3.8,8.2,7.8c0,3.3-4.4,4.5-7.2,2.3
			c-0.6-0.4-0.6-1.4-0.8-2c-0.5,0-0.5,0-0.5,0l0.2,3c0,0,2.1,0.9,4.4,1c3.9-0.1,5.8-2.7,5.9-5.1c0-5.3-8.3-3.8-8.2-7.8
			c0-2.9,3.5-3.6,6.1-2.2c0.6,0.3,0.9,1.9,0.9,1.9h0.5L104.8,37.5L104.8,37.5L104.8,37.5z"/>
		<path class="st0" d="M80.8,37.3c0,0,1.4,0,2,0.1c0.8,0,2.4-0.2,3.6-0.2c2.7,0,5.8,1.1,5.9,4.2c0,3.1-2.7,3.4-3.8,3.8
			c1.2,1,2.9,3.7,3.6,4.8c1.6,2.7,1.6,2.8,3.1,3.1v0.4c0,0-1-0.1-1.5-0.1c-0.5,0-1.5,0-1.8,0c-1.1-1.2-2.2-3.2-3.1-4.5
			c-1.3-2-2.4-3.3-4.2-3.2c0,0,0,4.9,0,4.8c0.1,2.2,0.3,2.3,1.5,2.5v0.3c0,0-1.2,0-2.7,0c-0.9,0-2.6,0-2.6,0.1V53
			c1.1-0.1,1.5-0.5,1.5-2.5V39.9c0-1.8-0.5-2.1-1.5-2.2V37.3L80.8,37.3L80.8,37.3z M84.7,38.3v6.6c1.5,0.4,5.3,0.2,5.2-3.4
			C89.8,37.8,86.4,37.6,84.7,38.3L84.7,38.3L84.7,38.3z"/>
		<path class="st0" d="M11.9,37.1c0,0,1.6,0.1,2.7,0.1c1.1,0,2.7-0.1,2.7-0.1v0.4c-0.7,0.2-1.6,0-1.6,2.7v6.9c0,2.7,0.7,3.3,0.7,3.3
			c0,0,1,1.9,3.7,1.9c2.5,0,3.5-1.9,3.5-1.8c0,0,0.6-0.6,0.6-3.3c0,0.1,0-7,0-7c0-2.5-0.2-2.5-2-2.7v-0.4c0,0,1,0.1,2.6,0.1
			c1.2,0,2.1-0.1,2.2-0.1c0,0,0,0.4,0,0.4c-1,0.2-1.6,0.3-1.6,2.6v7.7c0,2.7-1.4,3.9-1.4,3.8c0,0-1.5,1.8-4.7,1.8
			c-3.4,0-4.9-2.3-4.9-2.3c0,0-0.9-0.9-0.9-4.1v-6.8c0-2.5-0.3-2.6-1.5-2.7V37.1L11.9,37.1L11.9,37.1z"/>
	</g>
	<g>
		<path class="st0" d="M12.3,64.8c0-1.5,0-2-0.4-2h-0.8v-0.4h7.1c-0.1,1.2-0.2,1.3-0.3,1.3c-0.1,0-0.1-0.1-0.2-0.3
			c0-0.2-0.3-0.6-2.5-0.6h-1.4c-0.2,0-0.3,0.1-0.3,0.3v3.1h1.6c1.5,0,1.9-0.1,1.9-0.5v-0.6h0.4v2.4h-0.4v-0.5c0-0.4-0.1-0.4-1.8-0.4
			h-1.8v2.4c0,1.8,0.2,1.8,0.6,1.8h0.9c2.4,0,3-0.4,3.2-0.8c0-0.1,0.1-0.2,0.2-0.2c0.1,0,0.1,0.1,0.1,0.2c0,0.1-0.2,0.7-0.4,1.3
			h-6.7V71h0.7c0.2,0,0.2-0.1,0.2-0.2V64.8z"/>
		<path class="st0" d="M21.6,65.7h-0.6c-0.1,0-0.2,0-0.2,0.1c0,0.1,0.3,0.5,1.3,1.8c1-1,1.5-1.6,1.5-1.8c0-0.1-0.1-0.1-0.2-0.1h-0.8
			v-0.4h2.4v0.4c-0.4,0-0.5,0-0.7,0.2c-0.6,0.7-1.3,1.4-2,2.1c2.1,2.8,2.3,3,2.5,3h0.4v0.4h-2.9V71H23c0.1,0,0.1,0,0.1-0.1
			c0-0.1-1.1-1.5-1.6-2.2C21.2,69,20,70.4,20,70.9c0,0.1,0.1,0.1,0.2,0.1H21v0.4h-2.4V71H19c0.2,0,1-1.3,2.4-2.7
			c-1.8-2.4-2-2.6-2.3-2.6h-0.4v-0.4h3V65.7z"/>
		<path class="st0" d="M28.9,65.3c-0.1,0.3-0.1,0.4-0.3,0.4h-1.2v3.7c0,0.9,0,1.6,0.9,1.6c0.3,0,0.6-0.1,0.9-0.2l0.1,0.3
			c-0.5,0.3-1.3,0.5-1.6,0.5c-0.5,0-1.5,0-1.5-1.4v-4.5c-0.7,0-0.7,0-0.7-0.1c0-0.1,0.1-0.2,1.6-1.7h0.2v1.4H28.9z"/>
		<path class="st0" d="M34.9,70.5c-0.7,0.7-1.6,1.1-2.7,1.1c-1.8,0-2.7-1.4-2.7-3.1c0-1.6,0.9-3.4,2.7-3.4c1.3,0,2,0.9,2.5,2
			l-4.2,1.1c0.1,1.4,0.7,2.7,2.3,2.7c0.7,0,1.3-0.3,1.8-0.7L34.9,70.5z M33.5,67.1c-0.2-0.6-0.7-1.5-1.5-1.5c-1,0-1.4,1.4-1.4,2.3
			L33.5,67.1z"/>
		<path class="st0" d="M41.2,68.8c0,1.5,0,2.2,0.4,2.2h0.6v0.4h-3V71h0.5c0.1,0,0.3-0.1,0.3-0.2v-3.3c0-1.3-0.5-1.6-1.1-1.6
			c-0.7,0-1.3,0.4-1.8,0.8v2.1c0,1.5,0,2.2,0.4,2.2h0.6v0.4h-3V71h0.5c0.1,0,0.3-0.1,0.3-0.2v-3.3c0-1.7-0.1-1.7-0.6-1.7h-0.5v-0.4
			c0.2,0,0.7-0.1,1.1-0.1c0.5-0.1,0.9-0.1,1.1-0.1v1.1c0.7-0.5,1.4-1.1,2.3-1.1c1.5,0,1.7,1,1.7,2V68.8z"/>
		<path class="st0" d="M44.4,71.6c-0.6,0-1.1-0.1-1.7-0.3c-0.1-0.6-0.2-1-0.2-1.1c0-0.2,0.1-0.2,0.2-0.2c0.1,0,0.2,0.1,0.2,0.2
			c0.2,0.6,1.2,0.9,1.7,0.9c0.8,0,1.7-0.4,1.7-1.3c0-1.4-3.6-0.6-3.6-2.8c0-0.7,0.6-1.9,2.6-1.9c0.5,0,1,0.1,1.5,0.3
			c0,0.4,0.1,0.8,0.1,0.9c0,0.1,0,0.2-0.1,0.2c-0.1,0-0.1-0.1-0.2-0.2c-0.2-0.5-1-0.8-1.5-0.8c-0.6,0-1.4,0.3-1.4,1
			c0,1.4,3.7,0.7,3.7,2.9C47.3,71,45.7,71.6,44.4,71.6z"/>
		<path class="st0" d="M50.8,71.4h-3V71h0.5c0.1,0,0.3-0.1,0.3-0.2v-3.3c0-1.7-0.1-1.7-0.6-1.7h-0.5v-0.4c0.2,0,0.7-0.1,1.1-0.1
			c0.5-0.1,0.9-0.1,1.1-0.1v3.7c0,1.5,0,2.2,0.4,2.2h0.7V71.4z M49.7,63.1c0,0.4-0.3,0.6-0.6,0.6c-0.4,0-0.6-0.3-0.6-0.6
			c0-0.4,0.3-0.6,0.6-0.6C49.4,62.5,49.7,62.7,49.7,63.1z"/>
		<path class="st0" d="M57,68.2c0,1.1-0.7,3.4-3.2,3.4c-1.8,0-2.9-1.3-2.9-3.1c0-1.1,0.7-3.4,3.2-3.4C55.9,65.1,57,66.5,57,68.2z
			 M55.8,68.6c0-1.2-0.5-3-2.1-3c-1.4,0-1.7,1.5-1.7,2.6c0,1.2,0.5,3,2.1,3C55.5,71.2,55.8,69.7,55.8,68.6z"/>
		<path class="st0" d="M63.6,68.8c0,1.5,0,2.2,0.4,2.2h0.6v0.4h-3V71h0.5c0.1,0,0.3-0.1,0.3-0.2v-3.3c0-1.3-0.5-1.6-1.1-1.6
			c-0.7,0-1.3,0.4-1.8,0.8v2.1c0,1.5,0,2.2,0.4,2.2h0.6v0.4h-3V71h0.5c0.1,0,0.3-0.1,0.3-0.2v-3.3c0-1.7-0.1-1.7-0.6-1.7h-0.5v-0.4
			c0.2,0,0.7-0.1,1.1-0.1c0.5-0.1,0.9-0.1,1.1-0.1v1.1c0.7-0.5,1.4-1.1,2.3-1.1c1.5,0,1.7,1,1.7,2V68.8z"/>
		<path class="st0" d="M71.7,67.6v-0.7c0-0.6,0-1.2-1-1.2c-0.4,0-0.9,0.1-1.1,0.3c0,0.8-0.3,1.3-0.8,1.3c-0.2,0-0.4-0.2-0.4-0.4
			c0-1,1.5-1.8,3-1.8c1.4,0,1.5,0.7,1.5,1.8v2.2c0,1.2,0.1,1.6,0.9,1.8l-0.4,0.7c-0.7,0-1.4-0.5-1.5-1.3c-0.6,0.6-1.5,1.3-2.3,1.3
			c-0.8,0-1.3-0.6-1.3-1.3c0-1.2,1.2-1.8,3-2.5L71.7,67.6z M71.7,68c-1.4,0.6-2.3,1-2.3,2c0,0.5,0.3,0.8,0.7,0.8
			c0.7,0,1.2-0.4,1.6-0.9V68z"/>
		<path class="st0" d="M80.1,68.8c0,1.5,0,2.2,0.4,2.2h0.6v0.4h-3V71h0.5c0.1,0,0.3-0.1,0.3-0.2v-3.3c0-1.3-0.5-1.6-1.1-1.6
			c-0.7,0-1.3,0.4-1.8,0.8v2.1c0,1.5,0,2.2,0.4,2.2h0.6v0.4h-3V71h0.5c0.1,0,0.3-0.1,0.3-0.2v-3.3c0-1.7-0.1-1.7-0.6-1.7h-0.5v-0.4
			c0.2,0,0.7-0.1,1.1-0.1c0.5-0.1,0.9-0.1,1.1-0.1v1.1c0.7-0.5,1.4-1.1,2.3-1.1c1.5,0,1.7,1,1.7,2V68.8z"/>
		<path class="st0" d="M87.1,68.8c0,1.5,0,2.2,0.4,2.2h0.7v0.4c-0.7,0-1.5,0.1-2.2,0.2v-1c-0.7,0.5-1.3,1-2.2,1
			c-1.7,0-2.5-1.5-2.5-3c0-2.3,1.6-3.5,3-3.5c0.6,0,1.1,0.2,1.7,0.5v-1.9c0-1.7-0.1-1.7-0.6-1.7h-0.5v-0.4c0.4,0,1.5-0.2,2.2-0.3
			V68.8z M86,66.1c-0.4-0.3-0.9-0.5-1.4-0.5c-1.5,0-2.1,1.3-2.1,2.7c0,1.3,0.4,2.6,2,2.6c0.6,0,1.2-0.3,1.6-0.8V66.1z"/>
		<path class="st0" d="M91.9,67c0-2.7,1.9-4.9,4.7-4.9c2.8,0,4.5,1.9,4.5,4.6c0,2.7-1.9,4.9-4.7,4.9C93.5,71.7,91.9,69.8,91.9,67z
			 M93.1,66.6c0,3.2,1.9,4.6,3.6,4.6c1.9,0,3.2-1.5,3.2-4c0-3.2-1.9-4.6-3.6-4.6C94.4,62.6,93.1,64,93.1,66.6z"/>
		<path class="st0" d="M108.4,71.6c-0.7-0.1-1.3-0.5-1.5-1.2c-0.7,0.6-1.5,1.2-2.2,1.2c-1.5,0-1.9-0.9-1.9-2.5v-1.7
			c0-1.7-0.1-1.7-0.6-1.7h-0.5v-0.4c0.2,0,0.7-0.1,1.1-0.1c0.5-0.1,0.9-0.1,1.1-0.1v4c0,1,0.1,1.7,1.1,1.7c0.7,0,1.3-0.3,1.7-0.8
			v-2.6c0-1.7-0.1-1.7-0.6-1.7h-0.5v-0.4c0.2,0,0.7-0.1,1.1-0.1c0.5-0.1,0.9-0.1,1.1-0.1v4c0,1.2,0.1,1.6,0.9,1.8L108.4,71.6z"/>
		<path class="st0" d="M112.4,65.3c-0.1,0.3-0.1,0.4-0.3,0.4h-1.2v3.7c0,0.9,0,1.6,0.9,1.6c0.3,0,0.6-0.1,0.9-0.2l0.1,0.3
			c-0.5,0.3-1.3,0.5-1.6,0.5c-0.5,0-1.5,0-1.5-1.4v-4.5c-0.7,0-0.7,0-0.7-0.1c0-0.1,0.1-0.2,1.6-1.7h0.2v1.4H112.4z"/>
		<path class="st0" d="M115.5,68.8c0,1.5,0,2.2,0.4,2.2h0.7v0.4h-3V71h0.5c0.1,0,0.3-0.1,0.3-0.2v-3.3c0-1.7-0.1-1.7-0.6-1.7h-0.5
			v-0.4c0.2,0,0.7-0.1,1.2-0.1c0.5-0.1,0.9-0.1,1.1-0.1v1.2c0.6-0.6,1.2-1.2,1.8-1.2c0.3,0,0.5,0.1,0.7,0.3
			c-0.2,1.1-0.2,1.1-0.3,1.1c-0.2,0-0.1-0.5-0.8-0.5c-0.6,0-1,0.4-1.4,0.8V68.8z"/>
		<path class="st0" d="M123.6,70.5c-0.7,0.7-1.6,1.1-2.7,1.1c-1.8,0-2.7-1.4-2.7-3.1c0-1.6,0.9-3.4,2.8-3.4c1.3,0,2,0.9,2.5,2
			l-4.2,1.1c0.1,1.4,0.7,2.7,2.3,2.7c0.7,0,1.3-0.3,1.8-0.7L123.6,70.5z M122.2,67.1c-0.2-0.6-0.7-1.5-1.5-1.5c-1,0-1.4,1.4-1.4,2.3
			L122.2,67.1z"/>
		<path class="st0" d="M127.6,67.6v-0.7c0-0.6,0-1.2-1-1.2c-0.4,0-0.9,0.1-1.1,0.3c0,0.8-0.3,1.3-0.8,1.3c-0.2,0-0.4-0.2-0.4-0.4
			c0-1,1.5-1.8,3-1.8c1.4,0,1.5,0.7,1.5,1.8v2.2c0,1.2,0.1,1.6,0.9,1.8l-0.4,0.7c-0.7,0-1.4-0.5-1.5-1.3c-0.6,0.6-1.5,1.3-2.3,1.3
			c-0.8,0-1.3-0.6-1.3-1.3c0-1.2,1.2-1.8,3-2.5L127.6,67.6z M127.6,68c-1.4,0.6-2.3,1-2.3,2c0,0.5,0.3,0.8,0.7,0.8
			c0.7,0,1.2-0.4,1.6-0.9V68z"/>
		<path class="st0" d="M135.3,70.6c-0.6,0.7-1.5,1-2.5,1c-1.8,0-2.9-1.3-2.9-3.1c0-1.1,0.7-3.4,3.2-3.4c1,0,1.9,0.7,1.9,1.3
			c0,0.2-0.2,0.4-0.4,0.4c-0.6,0-0.9-0.7-1-1.2c-0.2-0.1-0.4-0.2-0.6-0.2c-1.4,0-2,1.4-2,2.6c0,1.5,0.8,2.8,2.4,2.8
			c0.6,0,1.2-0.2,1.6-0.6L135.3,70.6z"/>
		<path class="st0" d="M141.7,68.8c0,1.5,0,2.2,0.4,2.2h0.6v0.4h-3V71h0.5c0.1,0,0.3-0.1,0.3-0.2v-3.3c0-1.3-0.5-1.6-1.1-1.6
			c-0.7,0-1.3,0.4-1.8,0.8v2.1c0,1.5,0,2.2,0.4,2.2h0.6v0.4h-2.9V71h0.5c0.1,0,0.3-0.1,0.3-0.2v-7c0-1.7-0.1-1.7-0.6-1.7h-0.5v-0.4
			c0.4,0,1.5-0.2,2.2-0.3v4.8c0.7-0.5,1.4-1.1,2.3-1.1c1.5,0,1.7,1,1.7,2V68.8z"/>
	</g>
</g>
</svg>
